<svg xmlns="http://www.w3.org/2000/svg" version="1.1" xmlns:xlink="http://www.w3.org/1999/xlink" xmlns:svgjs="http://svgjs.dev/svgjs" width="2000" height="1999" viewBox="0 0 2000 1999"><g transform="matrix(1,0,0,1,-0.431486880466764,-0.4312711370263287)"><svg viewBox="0 0 343 343" data-background-color="#331e6d" preserveAspectRatio="xMidYMid meet" height="1999" width="2000" xmlns="http://www.w3.org/2000/svg" xmlns:xlink="http://www.w3.org/1999/xlink"><g id="tight-bounds" transform="matrix(1,0,0,1,0.0740000000000407,0.07400000000001228)"><svg viewBox="0 0 342.85155851775386 342.85155851775386" height="342.85155851775386" width="342.85155851775386"><g><svg></svg></g><g><svg viewBox="0 0 342.85155851775386 342.85155851775386" height="342.85155851775386" width="342.85155851775386"><g><path d="M0 171.426c0-94.676 76.75-171.426 171.426-171.426 94.676 0 171.426 76.75 171.426 171.426 0 94.676-76.75 171.426-171.426 171.426-94.676 0-171.426-76.75-171.426-171.426zM171.426 332.456c88.935 0 161.031-72.096 161.03-161.03 0-88.935-72.096-161.031-161.03-161.031-88.935 0-161.031 72.096-161.031 161.031 0 88.935 72.096 161.031 161.031 161.03z" data-fill-palette-color="tertiary" fill="#ffcf31" stroke="transparent"></path><ellipse rx="164.56874808852186" ry="164.56874808852186" cx="171.42577925887693" cy="171.42577925887693" fill="#ffcf31" stroke="transparent" stroke-width="0" fill-opacity="1" data-fill-palette-color="tertiary"></ellipse></g><g transform="matrix(1,0,0,1,64.84655864529837,113.79096263222551)"><svg viewBox="0 0 213.1584412271571 115.26963325330283" height="115.26963325330283" width="213.1584412271571"><g><svg viewBox="0 0 213.1584412271571 115.26963325330283" height="115.26963325330283" width="213.1584412271571"><g><svg viewBox="0 0 213.1584412271571 115.26963325330283" height="115.26963325330283" width="213.1584412271571"><g><svg viewBox="0 0 213.1584412271571 115.26963325330283" height="115.26963325330283" width="213.1584412271571"><g id="textblocktransform"><svg viewBox="0 0 213.1584412271571 115.26963325330283" height="115.26963325330283" width="213.1584412271571" id="textblock"><g><svg viewBox="0 0 213.1584412271571 115.26963325330283" height="115.26963325330283" width="213.1584412271571"><g transform="matrix(1,0,0,1,0,0)"><svg width="213.1584412271571" viewBox="0.3500000238418579 -40.5 76.63999938964844 41.45000076293945" height="115.26963325330283" data-palette-color="#331e6d"><path d="M3.05 0.95L0.35 0.95 0.35-3.1Q2.2-3.1 3.35-3.35 4.5-3.6 5.13-4.25 5.75-4.9 6-6.13 6.25-7.35 6.25-9.25L6.25-9.25 6.25-40.5 11.85-40.5 11.85-9.15Q11.85-5.65 11.1-3.43 10.35-1.2 8.45-0.13 6.55 0.95 3.05 0.95L3.05 0.95ZM25.7 0.4L25.7 0.4Q22.5 0.4 20.65-0.9 18.8-2.2 18.02-4.6 17.25-7 17.25-10.25L17.25-10.25 17.25-18.65Q17.25-21.9 18.02-24.3 18.8-26.7 20.65-28 22.5-29.3 25.7-29.3L25.7-29.3Q28.9-29.3 30.72-28 32.55-26.7 33.32-24.3 34.1-21.9 34.1-18.65L34.1-18.65 34.1-10.25Q34.1-7 33.32-4.6 32.55-2.2 30.72-0.9 28.9 0.4 25.7 0.4ZM25.7-3.55L25.7-3.55Q27.25-3.55 27.87-4.45 28.5-5.35 28.62-6.83 28.75-8.3 28.75-9.9L28.75-9.9 28.75-18.95Q28.75-20.6 28.62-22.05 28.5-23.5 27.87-24.43 27.25-25.35 25.7-25.35L25.7-25.35Q24.15-25.35 23.5-24.43 22.85-23.5 22.72-22.05 22.6-20.6 22.6-18.95L22.6-18.95 22.6-9.9Q22.6-8.3 22.72-6.83 22.85-5.35 23.5-4.45 24.15-3.55 25.7-3.55ZM46.95 0.4L46.95 0.4Q43.75 0.4 41.9-0.9 40.05-2.2 39.27-4.6 38.5-7 38.5-10.25L38.5-10.25 38.5-18.65Q38.5-21.9 39.27-24.3 40.05-26.7 41.9-28 43.75-29.3 46.95-29.3L46.95-29.3Q50.15-29.3 51.97-28 53.8-26.7 54.57-24.3 55.34-21.9 55.34-18.65L55.34-18.65 55.34-10.25Q55.34-7 54.57-4.6 53.8-2.2 51.97-0.9 50.15 0.4 46.95 0.4ZM46.95-3.55L46.95-3.55Q48.5-3.55 49.12-4.45 49.75-5.35 49.87-6.83 50-8.3 50-9.9L50-9.9 50-18.95Q50-20.6 49.87-22.05 49.75-23.5 49.12-24.43 48.5-25.35 46.95-25.35L46.95-25.35Q45.4-25.35 44.75-24.43 44.09-23.5 43.97-22.05 43.84-20.6 43.84-18.95L43.84-18.95 43.84-9.9Q43.84-8.3 43.97-6.83 44.09-5.35 44.75-4.45 45.4-3.55 46.95-3.55ZM65.59 0L60.24 0 60.24-28.9 65.59-28.9 65.59-26.05Q67.04-27.4 68.79-28.35 70.54-29.3 72.64-29.3L72.64-29.3Q74.39-29.3 75.32-28.4 76.24-27.5 76.62-26.15 76.99-24.8 76.99-23.4L76.99-23.4 76.99 0 71.64 0 71.64-21.85Q71.64-23.4 71.19-24.25 70.74-25.1 69.34-25.1L69.34-25.1Q68.44-25.1 67.47-24.58 66.49-24.05 65.59-23.3L65.59-23.3 65.59 0Z" opacity="1" transform="matrix(1,0,0,1,0,0)" fill="#331e6d" class="undefined-text-0" data-fill-palette-color="quaternary" id="text-0"></path></svg></g></svg></g></svg></g></svg></g><g></g></svg></g></svg></g></svg></g></svg></g><defs></defs></svg><rect width="342.85155851775386" height="342.85155851775386" fill="none" stroke="none" visibility="hidden"></rect></g></svg></g></svg>